<?xml version="1.0" standalone="no"?>
<!DOCTYPE svg PUBLIC "-//W3C//DTD SVG 20010904//EN"
 "http://www.w3.org/TR/2001/REC-SVG-20010904/DTD/svg10.dtd">
<svg version="1.0" xmlns="http://www.w3.org/2000/svg"
 width="3333.000000pt" height="3333.000000pt" viewBox="0 0 3333.000000 3333.000000"
 preserveAspectRatio="xMidYMid meet">
<metadata>
Created by potrace 1.14, written by Peter Selinger 2001-2017
</metadata>
<g transform="translate(0.000000,3333.000000) scale(0.100000,-0.100000)"
fill="#000000" stroke="none">
<path d="M10627 32994 c-1 -1 -29 -4 -62 -8 -33 -3 -69 -8 -80 -11 -67 -17
-476 -115 -496 -118 -13 -3 -44 -10 -69 -17 -25 -7 -54 -14 -64 -16 -72 -14
-226 -79 -226 -96 0 -4 -3 -7 -7 -6 -7 2 -61 -29 -73 -42 -7 -7 -278 -201
-312 -222 -69 -45 -192 -187 -336 -388 -161 -224 -203 -295 -227 -382 -29
-108 -55 -195 -76 -248 -11 -30 -34 -93 -50 -139 -30 -82 -51 -131 -111 -261
-17 -36 -29 -65 -28 -65 2 0 -15 -34 -38 -75 -22 -41 -53 -100 -69 -130 -81
-151 -183 -307 -246 -377 -228 -254 -325 -351 -507 -504 -65 -55 -201 -150
-265 -185 -11 -6 -47 -26 -80 -44 -87 -49 -251 -131 -325 -163 -36 -15 -77
-35 -92 -43 -16 -8 -28 -12 -28 -8 0 3 -7 1 -15 -6 -8 -7 -15 -9 -15 -4 0 5
-4 4 -8 -2 -4 -6 -38 -21 -77 -34 -38 -13 -74 -27 -80 -31 -5 -3 -71 -25 -145
-48 -210 -66 -275 -90 -325 -122 -25 -16 -50 -29 -55 -29 -4 0 -10 -4 -12 -8
-1 -4 -88 -69 -193 -144 -215 -155 -283 -217 -356 -323 -19 -27 -56 -79 -82
-115 -27 -36 -55 -74 -62 -85 -8 -11 -35 -49 -61 -84 -114 -157 -119 -171
-229 -631 -25 -107 -53 -222 -61 -255 -25 -106 -35 -167 -36 -225 -2 -54 14
-169 32 -240 10 -41 21 -86 24 -100 6 -32 47 -202 97 -400 22 -85 41 -163 44
-173 4 -18 66 -139 75 -147 6 -5 144 -198 170 -236 8 -13 47 -67 87 -122 94
-130 124 -160 243 -241 36 -25 67 -48 70 -51 3 -4 34 -26 70 -51 36 -24 92
-64 125 -89 88 -65 199 -129 255 -144 14 -4 84 -26 155 -49 72 -22 132 -42
135 -42 7 -2 24 -9 200 -79 180 -71 407 -183 582 -287 140 -83 179 -111 264
-188 34 -31 90 -81 125 -111 35 -30 88 -82 119 -114 30 -33 80 -85 110 -116
30 -31 71 -75 90 -99 19 -23 45 -52 56 -64 32 -32 174 -248 174 -264 0 -7 5
-13 10 -13 6 0 10 -6 10 -14 0 -7 7 -19 15 -26 8 -7 13 -15 11 -19 -2 -3 5
-19 15 -36 41 -65 160 -319 214 -456 60 -151 99 -265 141 -413 35 -125 53
-157 213 -381 28 -38 63 -88 78 -110 68 -97 150 -202 178 -225 16 -14 37 -32
46 -41 9 -9 63 -49 120 -90 57 -40 109 -77 114 -81 125 -94 211 -151 281 -186
56 -28 254 -81 624 -168 58 -14 112 -26 120 -28 159 -39 304 -34 515 19 82 21
154 38 160 40 5 1 21 5 35 8 101 25 277 66 306 72 112 24 218 77 356 177 47
35 96 70 108 78 12 8 54 39 93 68 39 28 74 52 78 52 4 0 43 35 87 78 66 65
140 157 212 266 8 13 23 34 33 47 69 93 163 231 182 269 12 25 39 101 59 170
20 69 40 132 43 140 3 8 7 21 9 27 7 34 116 308 159 398 84 179 103 216 138
279 22 39 51 91 64 116 14 25 31 52 39 61 8 8 14 19 14 23 0 17 110 161 190
249 6 7 42 -122 65 -233 6 -28 53 -224 90 -372 26 -107 50 -176 86 -248 27
-55 49 -105 49 -110 0 -6 5 -10 10 -10 6 0 9 -3 8 -7 -2 -10 264 -546 275
-554 5 -3 8 -9 8 -13 -1 -3 84 -177 189 -387 104 -209 190 -384 190 -389 0 -9
-84 -151 -201 -337 -35 -56 -107 -172 -159 -258 -52 -86 -101 -163 -107 -170
-7 -8 -13 -16 -13 -19 0 -5 -112 -190 -215 -356 -55 -89 -122 -197 -132 -215
-7 -11 -37 -60 -68 -109 -30 -48 -55 -92 -55 -97 0 -5 -4 -9 -10 -9 -5 0 -10
-4 -10 -9 0 -9 -124 -215 -197 -328 -18 -28 -33 -56 -33 -61 0 -5 -9 -17 -19
-26 -11 -10 -29 -37 -41 -59 -11 -23 -45 -80 -75 -127 -30 -47 -69 -110 -87
-140 -17 -30 -81 -133 -140 -228 -59 -95 -108 -174 -108 -177 0 -2 -18 -31
-40 -64 -22 -33 -40 -63 -40 -66 0 -4 -11 -21 -25 -39 -14 -18 -25 -36 -25
-40 0 -9 -53 -90 -62 -94 -5 -2 -8 -7 -8 -12 0 -5 -31 -59 -70 -122 -93 -151
-153 -249 -165 -270 -5 -9 -68 -111 -138 -225 -71 -114 -134 -217 -140 -227
-7 -11 -39 -63 -72 -117 -66 -107 -119 -194 -227 -369 -39 -63 -90 -146 -114
-185 -24 -38 -60 -97 -80 -130 -20 -33 -54 -87 -74 -120 -60 -96 -188 -306
-310 -505 -62 -102 -123 -201 -136 -220 -26 -40 -248 -401 -273 -443 -9 -16
-30 -50 -47 -77 -18 -27 -43 -68 -55 -92 -13 -23 -28 -47 -32 -53 -15 -18 -98
-149 -108 -170 -13 -27 -30 -55 -55 -90 -11 -17 -24 -37 -28 -45 -8 -18 -25
-45 -50 -83 -11 -16 -27 -41 -35 -56 -18 -31 -94 -156 -154 -253 -23 -37 -66
-107 -96 -155 -30 -49 -68 -110 -86 -138 -26 -41 -109 -174 -270 -438 -11 -18
-42 -69 -68 -112 -27 -44 -61 -100 -77 -125 -36 -56 -49 -77 -78 -126 -12 -22
-30 -51 -40 -66 -9 -14 -53 -85 -97 -157 -44 -73 -95 -155 -113 -184 -78 -125
-290 -469 -304 -494 -56 -97 -133 -219 -140 -221 -4 -2 -8 -8 -8 -14 0 -6 -41
-76 -91 -157 -51 -80 -110 -175 -132 -211 -22 -36 -52 -83 -66 -105 -14 -22
-36 -60 -50 -85 -13 -25 -27 -47 -31 -50 -3 -3 -17 -25 -31 -50 -13 -25 -29
-51 -36 -58 -6 -6 -15 -21 -18 -32 -3 -11 -11 -20 -16 -20 -5 0 -9 -5 -9 -11
0 -6 -13 -29 -29 -52 -15 -23 -48 -75 -72 -116 -24 -40 -54 -90 -66 -110 -13
-20 -32 -52 -43 -71 -11 -19 -44 -73 -75 -120 -30 -47 -64 -104 -77 -127 -12
-24 -26 -43 -30 -43 -4 0 -8 -6 -8 -12 0 -11 -41 -79 -67 -113 -5 -5 -14 -21
-20 -35 -14 -27 -35 -62 -43 -70 -3 -3 -11 -16 -19 -30 -42 -72 -233 -380
-262 -422 -11 -15 -19 -30 -19 -33 0 -4 -13 -25 -29 -49 -16 -23 -41 -64 -56
-91 -15 -28 -38 -64 -51 -82 -13 -17 -24 -36 -24 -40 0 -5 -7 -18 -16 -28 -8
-11 -36 -55 -62 -97 -70 -115 -221 -360 -287 -468 -215 -348 -249 -404 -254
-415 -2 -5 -21 -35 -41 -65 -20 -30 -59 -92 -86 -138 -27 -46 -56 -93 -64
-106 -8 -13 -41 -66 -73 -117 -32 -52 -84 -137 -117 -189 -32 -52 -80 -131
-107 -175 -26 -43 -60 -100 -76 -125 -15 -25 -33 -55 -39 -68 -6 -12 -15 -22
-20 -22 -4 0 -8 -5 -8 -11 0 -6 -13 -29 -29 -52 -15 -23 -38 -62 -51 -86 -12
-25 -29 -51 -37 -59 -8 -8 -19 -25 -24 -36 -13 -28 -30 -55 -56 -93 -13 -17
-23 -34 -23 -37 0 -6 -74 -125 -90 -143 -5 -7 -10 -14 -10 -16 0 -3 -15 -30
-34 -61 l-34 -57 -33 48 c-60 88 -146 162 -362 313 -43 30 -90 65 -105 77 -15
13 -30 23 -33 23 -3 0 -17 9 -30 20 -13 11 -28 23 -34 28 -21 17 -135 81 -135
75 0 -3 -6 -1 -13 6 -12 10 -153 45 -597 151 -96 23 -184 44 -195 47 -11 3
-65 6 -120 7 -106 3 -127 -1 -430 -74 -93 -22 -177 -43 -185 -44 -8 -2 -55
-14 -105 -26 -49 -12 -99 -23 -109 -25 -41 -9 -123 -39 -166 -61 -36 -18 -337
-227 -412 -286 -9 -7 -27 -20 -39 -28 -69 -46 -192 -185 -289 -327 -8 -11 -52
-73 -98 -136 -110 -153 -154 -237 -177 -337 -2 -8 -20 -82 -40 -165 -19 -82
-43 -181 -51 -219 -8 -38 -17 -72 -19 -76 -2 -3 -16 -58 -32 -121 l-28 -114
-3 -1006 -3 -1005 -68 -31 c-80 -35 -494 -328 -574 -406 -47 -46 -75 -80 -139
-168 -233 -327 -276 -390 -283 -419 -1 -3 -7 -18 -14 -35 -7 -16 -14 -37 -16
-45 -2 -8 -4 -15 -5 -15 -1 0 -3 -7 -5 -15 -17 -64 -27 -109 -31 -130 -3 -14
-9 -38 -14 -55 -5 -16 -11 -41 -14 -55 -2 -14 -16 -70 -29 -125 -14 -55 -28
-111 -31 -125 -2 -14 -14 -65 -26 -115 -28 -113 -30 -128 -30 -246 0 -105 5
-141 49 -322 16 -67 53 -216 80 -332 56 -230 75 -286 121 -362 18 -30 198
-285 217 -308 5 -5 31 -41 58 -80 27 -38 65 -87 85 -109 33 -36 213 -174 387
-296 43 -30 80 -57 83 -60 12 -15 110 -68 160 -88 45 -18 478 -128 570 -145
14 -3 63 -15 110 -27 46 -12 98 -24 115 -26 40 -6 28554 -6 28580 0 11 2 61
14 110 25 185 42 621 150 646 159 15 6 30 8 33 5 3 -4 6 -2 6 4 0 5 18 15 40
22 22 6 40 16 40 21 0 6 5 10 11 10 6 0 79 48 161 108 82 59 160 114 171 122
80 54 180 135 213 173 31 36 206 274 274 373 8 12 33 48 55 80 61 88 91 165
130 334 2 8 11 47 20 85 9 39 18 77 20 85 2 8 24 100 49 205 26 104 49 203 52
220 8 42 7 213 -1 255 -14 80 -158 685 -177 745 -25 83 -91 190 -249 410 -175
243 -208 278 -364 389 -55 39 -101 74 -103 78 -2 5 -10 8 -17 8 -7 0 -15 4
-17 8 -1 4 -25 23 -53 42 -27 19 -52 38 -55 41 -12 16 -168 107 -202 118 l-37
12 -3 1017 c-2 747 -6 1024 -15 1043 -6 14 -14 39 -17 55 -2 16 -11 56 -20 89
-22 91 -117 484 -121 503 -6 33 -38 117 -58 157 -50 100 -323 473 -406 555
-59 58 -122 108 -384 296 -161 115 -262 159 -453 199 -11 2 -66 15 -124 28
-58 14 -154 37 -215 51 -60 14 -126 30 -145 36 -69 19 -116 24 -210 23 -129 0
-62 13 -724 -148 -104 -25 -203 -53 -220 -63 -17 -9 -34 -15 -37 -15 -4 1
-315 -218 -488 -344 -37 -27 -131 -120 -131 -130 0 -4 -14 -23 -30 -42 -17
-18 -30 -38 -30 -43 0 -25 -39 33 -181 270 -9 15 -35 56 -57 92 -23 36 -64
103 -92 150 -28 47 -63 104 -78 127 -15 23 -61 97 -102 165 -41 68 -89 145
-107 173 -18 27 -33 53 -33 58 0 4 -8 16 -17 27 -10 10 -27 36 -38 57 -10 21
-31 56 -46 78 -42 62 -129 204 -129 210 0 4 -18 33 -40 65 -22 32 -40 61 -40
64 0 3 -13 25 -29 48 -26 38 -245 395 -282 457 -8 14 -18 30 -22 35 -11 16
-79 126 -225 366 -72 118 -135 220 -140 226 -6 6 -29 44 -52 85 -23 41 -48 81
-56 90 -8 8 -14 18 -14 21 0 3 -57 97 -126 208 -69 111 -128 210 -132 219 -3
9 -9 18 -12 21 -11 8 -64 95 -59 96 2 1 -3 10 -12 20 -14 16 -94 145 -313 502
-28 46 -60 98 -71 116 -11 18 -39 63 -62 102 -24 38 -58 92 -75 121 -80 127
-222 361 -237 388 -9 16 -22 36 -29 44 -8 8 -18 24 -23 35 -5 12 -23 41 -39
66 -16 25 -43 70 -61 100 -17 30 -35 57 -38 60 -4 3 -20 28 -35 55 -16 28 -44
73 -62 102 -19 28 -34 56 -34 62 0 6 -4 11 -8 11 -5 0 -15 12 -22 28 -8 15
-28 50 -46 77 -17 28 -64 104 -104 170 -41 66 -103 167 -139 225 -35 58 -86
141 -113 185 -26 44 -51 85 -55 91 -9 12 -23 33 -56 89 -62 103 -157 255 -190
307 -20 31 -37 60 -37 63 0 4 -24 44 -53 88 -30 45 -86 136 -126 202 -40 66
-96 158 -125 205 -29 47 -126 204 -215 350 -90 146 -179 289 -198 318 -19 29
-42 68 -52 85 -10 18 -42 70 -71 117 -29 47 -65 104 -79 127 -14 24 -49 80
-77 125 -29 46 -61 100 -72 120 -12 20 -36 61 -55 90 -19 29 -53 85 -77 123
-24 39 -53 86 -65 105 -12 19 -48 78 -80 130 -32 52 -80 130 -107 172 -43 69
-220 357 -305 498 -18 30 -38 62 -43 70 -21 31 -80 127 -117 190 -20 36 -41
70 -45 75 -13 16 -168 267 -168 272 0 3 -17 30 -37 61 -41 61 -58 89 -69 112
-4 8 -28 47 -52 85 -80 125 -282 455 -282 460 0 3 -5 11 -10 18 -19 21 -120
188 -120 197 0 4 -4 10 -8 12 -5 2 -35 48 -68 103 -32 55 -61 102 -64 105 -3
3 -52 82 -108 175 -57 94 -134 220 -172 280 -38 61 -73 117 -76 125 -4 8 -13
22 -20 30 -6 8 -21 31 -32 50 -11 19 -45 76 -75 125 -31 50 -73 119 -94 154
-21 35 -46 75 -56 90 -9 14 -20 34 -23 44 -4 9 -10 17 -15 17 -5 0 -9 4 -9 10
0 8 -37 70 -90 150 -11 16 -59 95 -122 200 -42 70 -55 91 -283 460 -234 378
-316 512 -337 550 -11 19 -26 42 -32 50 -7 8 -16 22 -20 30 -3 8 -20 35 -36
60 -16 25 -39 63 -51 85 -12 22 -41 69 -65 105 -68 104 -204 332 -204 342 0 5
14 37 32 71 18 34 31 65 30 70 -1 4 2 7 6 7 4 0 19 24 32 54 13 30 27 53 31
50 4 -2 31 -44 59 -92 70 -119 64 -109 170 -272 85 -129 263 -382 403 -570 27
-36 56 -76 65 -89 9 -13 22 -28 28 -35 6 -6 32 -40 58 -76 26 -36 64 -83 84
-105 21 -21 52 -57 70 -79 134 -159 487 -514 624 -626 23 -19 52 -44 63 -55
32 -31 89 -78 120 -100 16 -11 45 -33 65 -50 21 -16 47 -37 60 -45 12 -8 49
-36 81 -62 33 -26 103 -78 155 -115 53 -38 126 -90 162 -116 117 -84 377 -255
489 -322 59 -35 113 -68 118 -72 19 -16 386 -202 492 -250 26 -12 77 -35 113
-51 36 -16 83 -35 105 -42 22 -7 45 -16 50 -20 21 -14 442 -161 503 -175 10
-2 58 -16 107 -30 89 -26 342 -90 387 -99 12 -2 68 -16 123 -29 55 -14 112
-28 126 -31 14 -2 53 -11 85 -20 32 -8 95 -23 139 -32 44 -10 85 -19 90 -20
14 -4 220 -44 280 -55 371 -68 926 -100 1335 -76 205 12 275 17 298 22 13 3
49 8 80 10 95 7 307 42 492 80 96 20 186 38 200 41 14 2 31 7 38 9 14 5 266
65 299 71 21 4 518 131 538 137 6 2 30 9 55 16 217 62 470 155 772 285 21 9
39 15 41 14 1 -2 9 3 17 10 8 6 103 56 210 110 165 83 282 147 374 205 190
119 496 328 691 471 11 8 56 41 100 73 125 90 360 279 421 338 12 11 54 49 94
85 150 133 383 375 530 550 12 14 32 37 46 52 13 15 24 30 24 32 0 2 18 23 40
46 22 23 40 46 40 51 0 4 6 14 13 21 17 17 125 160 168 223 19 28 36 52 39 55
3 3 30 40 60 83 30 43 76 106 101 140 25 34 80 114 122 177 42 63 81 120 87
127 5 7 10 15 10 18 0 4 19 37 43 73 24 37 58 94 77 127 19 33 45 78 58 100
22 40 226 451 243 490 4 11 19 45 32 75 70 161 173 447 212 585 14 50 30 101
35 115 5 14 12 36 14 50 3 14 17 72 31 130 15 58 28 112 30 120 3 15 23 99 31
133 2 9 6 25 8 35 2 9 9 37 16 62 7 25 14 56 17 70 2 14 11 52 20 85 30 119
33 142 35 245 1 90 -8 176 -23 225 -5 17 -23 89 -40 160 -71 296 -110 461
-114 475 -10 39 -44 120 -69 165 -24 43 -130 196 -161 232 -5 7 -26 35 -45 64
-75 109 -144 196 -192 241 -118 110 -539 397 -623 424 -56 19 -619 159 -685
170 -14 3 -32 7 -40 9 -64 19 -213 23 -350 9 -86 -9 -568 -9 -680 -1 -114 8
-192 17 -220 23 -14 3 -47 8 -75 10 -74 6 -127 21 -319 95 -104 40 -109 42
-186 77 -36 16 -90 40 -120 52 -30 13 -63 30 -72 38 -10 8 -18 12 -18 9 0 -4
-17 3 -37 15 -21 12 -56 31 -78 43 -260 144 -317 182 -465 314 -15 14 -56 51
-91 81 -125 110 -298 294 -409 433 -8 11 -20 25 -27 32 -20 21 -133 204 -133
215 0 5 -4 10 -10 10 -5 0 -10 4 -10 9 0 4 -25 55 -57 112 -53 99 -170 347
-178 379 0 3 -7 16 -15 30 -7 14 -12 25 -11 25 1 0 -2 12 -8 27 -83 219 -99
277 -115 413 -9 77 -19 156 -22 175 -3 19 -7 168 -9 330 -3 270 4 404 29 562
3 18 8 56 11 83 3 28 8 61 11 75 3 13 7 40 10 59 2 19 11 62 19 96 8 35 16 74
19 86 3 13 14 61 25 107 29 117 31 131 31 229 0 113 10 66 -105 538 -20 83
-39 159 -41 170 -2 11 -11 47 -19 80 -9 33 -17 69 -20 79 -8 34 -75 169 -100
202 -13 17 -82 112 -153 211 -151 211 -230 295 -367 392 -55 38 -106 75 -112
81 -19 16 -140 102 -186 132 -51 33 -157 87 -183 93 -10 3 -80 20 -154 38
-162 41 -553 134 -595 142 -58 11 -272 6 -395 -9 -169 -21 -193 -25 -355 -51
-55 -9 -138 -26 -185 -37 -47 -10 -114 -25 -150 -32 -36 -8 -171 -39 -300 -71
-129 -31 -264 -63 -300 -72 -36 -8 -72 -16 -80 -18 -8 -2 -82 -22 -165 -45
-473 -131 -952 -330 -1361 -566 -54 -31 -108 -62 -119 -68 -10 -6 -116 -76
-235 -155 -189 -126 -232 -156 -287 -201 -7 -6 -17 -10 -23 -10 -5 0 -10 -3
-10 -8 0 -4 -18 -18 -40 -32 -22 -14 -40 -28 -40 -32 0 -5 -4 -8 -10 -8 -7 0
-95 -61 -155 -107 -5 -5 -48 -37 -95 -72 -181 -137 -369 -300 -548 -475 -110
-108 -336 -352 -417 -450 -22 -27 -48 -58 -58 -68 -11 -11 -29 -34 -40 -51
-12 -18 -56 -77 -98 -132 -204 -270 -572 -802 -569 -821 1 -4 -2 -10 -7 -13
-12 -8 -146 -243 -176 -308 -13 -29 -29 -58 -35 -65 -5 -7 -12 -17 -13 -23 -2
-5 -33 -73 -70 -150 -96 -201 -227 -528 -254 -635 -1 -3 -4 -12 -8 -20 -7 -18
-78 -245 -81 -262 -2 -7 -6 -20 -9 -28 -5 -13 -36 -140 -71 -287 -2 -10 -30
-124 -61 -253 -31 -129 -58 -242 -60 -250 -27 -113 -78 -366 -96 -481 l-24
-146 -40 9 c-22 6 -47 11 -55 13 -8 2 -64 16 -125 31 -170 42 -309 39 -515
-11 -8 -2 -90 -22 -182 -44 -92 -22 -178 -43 -190 -46 -241 -53 -320 -86 -472
-194 -136 -97 -157 -111 -161 -111 -2 0 -60 40 -128 89 -109 79 -225 148 -260
155 -7 2 -39 10 -72 20 -33 9 -76 21 -95 26 l-36 10 28 112 c30 120 87 359 94
393 2 11 17 71 33 134 49 198 45 268 -39 616 -16 66 -47 196 -70 288 -67 282
-71 289 -264 557 -42 58 -84 116 -93 129 -104 144 -179 221 -290 298 -32 22
-125 88 -208 147 -176 127 -206 143 -345 185 -127 38 -413 140 -493 175 -31
14 -59 26 -62 25 -3 0 -18 7 -33 15 -15 8 -76 39 -136 68 -254 124 -468 258
-602 380 -62 56 -337 333 -381 384 -24 27 -63 72 -88 99 -39 44 -149 219 -215
340 -12 22 -32 60 -46 84 -13 24 -24 50 -24 57 0 7 -4 14 -8 16 -31 13 -212
479 -301 774 -11 38 -40 101 -63 140 -34 56 -183 270 -215 309 -5 6 -34 46
-65 90 -82 115 -122 154 -239 237 -13 10 -78 57 -144 104 -255 185 -306 213
-455 250 -206 50 -437 106 -475 114 -22 5 -68 16 -103 24 -34 9 -79 18 -100
21 -34 5 -151 12 -155 9z"/>
<path d="M5825 24585 c-38 -7 -99 -20 -135 -29 -36 -9 -76 -19 -90 -22 -14 -3
-90 -21 -169 -41 -79 -19 -151 -36 -160 -38 -79 -17 -196 -48 -239 -64 -80
-29 -128 -61 -367 -235 -11 -8 -60 -43 -110 -78 -49 -35 -115 -88 -145 -118
-47 -47 -294 -378 -354 -475 -10 -16 -22 -32 -25 -35 -14 -10 -61 -128 -85
-213 -26 -89 -103 -316 -127 -372 -7 -16 -13 -32 -14 -35 -28 -81 -206 -451
-261 -540 -129 -210 -194 -297 -338 -449 -91 -95 -245 -245 -316 -305 -30 -26
-66 -57 -80 -70 -14 -13 -47 -38 -75 -57 -27 -19 -52 -36 -55 -39 -3 -3 -14
-10 -25 -16 -11 -6 -65 -37 -120 -69 -137 -79 -457 -235 -480 -234 -3 0 -18
-7 -33 -15 -42 -24 -434 -159 -492 -170 -35 -7 -157 -65 -185 -88 -5 -5 -35
-26 -65 -48 -30 -22 -59 -43 -65 -48 -5 -4 -73 -52 -150 -106 -77 -55 -167
-127 -200 -161 -90 -92 -412 -548 -420 -595 0 -3 -11 -34 -23 -70 -18 -56 -94
-356 -108 -430 -3 -14 -10 -43 -16 -65 -5 -22 -12 -47 -13 -55 -2 -8 -10 -44
-19 -80 -26 -110 -28 -132 -28 -230 0 -109 4 -142 33 -254 23 -88 28 -108 35
-146 3 -14 7 -33 10 -42 3 -9 7 -25 9 -35 2 -10 20 -85 40 -168 20 -82 39
-161 41 -175 12 -67 77 -203 131 -277 21 -28 61 -84 88 -123 28 -39 55 -76 61
-83 6 -7 29 -39 52 -72 73 -107 136 -177 202 -227 36 -27 72 -55 80 -61 8 -7
35 -26 60 -43 25 -17 99 -70 165 -117 66 -48 140 -97 165 -109 25 -13 48 -27
52 -33 4 -5 8 -6 8 -1 0 5 6 3 14 -3 8 -7 25 -14 37 -16 37 -6 304 -92 367
-117 44 -17 65 -25 107 -41 22 -8 72 -29 110 -47 39 -17 95 -43 125 -57 58
-26 143 -69 225 -115 28 -15 60 -32 72 -37 12 -6 41 -23 65 -38 61 -39 81 -51
98 -59 15 -7 110 -81 179 -140 167 -141 386 -366 513 -526 103 -130 261 -413
372 -668 20 -47 41 -93 47 -102 5 -10 9 -22 9 -28 0 -6 9 -29 19 -53 17 -38
94 -268 137 -407 18 -60 44 -122 55 -130 3 -3 13 -19 22 -37 9 -17 22 -37 29
-45 7 -8 18 -21 23 -30 47 -79 263 -364 311 -412 33 -34 130 -110 215 -171 85
-60 159 -113 164 -118 151 -115 262 -166 443 -202 9 -2 45 -10 80 -19 34 -9
82 -21 105 -26 23 -5 83 -18 132 -30 50 -12 100 -24 112 -26 12 -2 34 -9 48
-14 14 -5 25 -8 25 -6 0 2 20 -2 44 -9 51 -16 276 -19 328 -5 18 5 130 33 248
61 577 138 549 127 796 304 87 62 164 118 171 124 7 6 15 11 18 11 4 0 12 6
20 13 7 6 38 32 69 56 67 53 88 78 237 286 62 88 116 162 120 165 3 3 28 40
56 83 59 90 77 134 128 307 32 111 72 225 110 315 7 17 16 41 20 55 4 14 22
57 40 95 55 117 73 160 73 169 0 5 4 12 9 15 5 3 19 26 31 51 76 157 197 354
276 449 166 199 313 346 560 559 148 127 586 357 901 473 97 36 283 99 309
104 56 13 136 43 191 72 74 40 479 336 530 387 43 44 130 155 196 251 19 27
37 54 42 60 103 139 169 242 194 305 13 30 41 132 63 225 22 94 45 188 51 210
7 22 18 69 26 105 20 92 20 90 33 140 20 72 22 87 27 229 3 84 1 148 -6 175
-7 22 -13 50 -15 61 -5 26 -44 187 -113 465 -71 288 -71 288 -295 597 -161
222 -219 284 -359 384 -57 40 -108 77 -114 82 -5 5 -57 42 -115 84 -109 78
-183 119 -260 145 -73 25 -118 39 -137 42 -41 8 -244 82 -388 141 -11 5 -22 9
-25 10 -33 8 -80 31 -80 39 0 5 -3 7 -6 4 -5 -5 -218 93 -264 122 -8 5 -69 39
-135 76 -66 37 -122 70 -125 73 -3 3 -27 22 -55 40 -27 19 -52 37 -55 40 -3 4
-32 29 -65 56 -145 121 -388 366 -501 504 -10 13 -24 28 -29 35 -30 33 -89
125 -150 231 -37 66 -80 140 -94 165 -14 25 -26 47 -26 50 0 3 -20 46 -44 95
-70 147 -171 397 -207 515 -7 25 -24 83 -37 130 -14 47 -36 111 -50 142 -21
46 -148 244 -186 290 -13 16 -63 85 -111 153 -19 28 -39 56 -45 64 -35 49
-151 148 -284 244 -85 60 -160 114 -165 118 -141 113 -222 150 -446 204 -107
26 -258 63 -335 82 -286 70 -380 81 -500 58z"/>
</g>
</svg>
